PathFileType	4	(X/Y/Z)	C:/Users/opensim2020/Desktop/walking_exp_matlab/subject03_walking05_straight_03.trc	
DataRate	CameraRate	NumFrames	NumMarkers	Units	OrigDataRate	OrigDataStartFrame	OrigNumFrames	
100.00	100.00	4	45	mm	100.00	2184	293	
Frame#	Time	LFHD			RFHD			LBHD			RBHD			C7			T10			CLAV			STRN			RBAK			LSHO			LUPA			LELB			LFRM			LWRA			LWRB			LFIN			RSHO			RUPA			RELB			RFRM			RWRA			RWRB			RFIN			LASI			RASI			LPSI			RPSI			LTHI			LKNE			LTIB			LANK			LHEE			LTOE			RTHI			RKNE			RTIB			RANK			RHEE			RTOE			*39			*40			*41			*42			*43			*44			
		X1	Y1	Z1	X2	Y2	Z2	X3	Y3	Z3	X4	Y4	Z4	X5	Y5	Z5	X6	Y6	Z6	X7	Y7	Z7	X8	Y8	Z8	X9	Y9	Z9	X10	Y10	Z10	X11	Y11	Z11	X12	Y12	Z12	X13	Y13	Z13	X14	Y14	Z14	X15	Y15	Z15	X16	Y16	Z16	X17	Y17	Z17	X18	Y18	Z18	X19	Y19	Z19	X20	Y20	Z20	X21	Y21	Z21	X22	Y22	Z22	X23	Y23	Z23	X24	Y24	Z24	X25	Y25	Z25	X26	Y26	Z26	X27	Y27	Z27	X28	Y28	Z28	X29	Y29	Z29	X30	Y30	Z30	X31	Y31	Z31	X32	Y32	Z32	X33	Y33	Z33	X34	Y34	Z34	X35	Y35	Z35	X36	Y36	Z36	X37	Y37	Z37	X38	Y38	Z38	X39	Y39	Z39	X40	Y40	Z40	X41	Y41	Z41	X42	Y42	Z42	X43	Y43	Z43	X44	Y44	Z44	X45	Y45	Z45	

74	0.730	-1058.74780	-895.90405	1612.36780	-925.94720	-905.20544	1620.63037	-1061.40356	-1023.62830	1568.04773	-930.25830	-1028.66602	1576.43762	-993.45166	-1056.08118	1414.33630	-995.19470	-1106.07300	1104.90601	-995.24731	-937.26379	1333.47034	-1000.67358	-900.28400	1166.26294	-891.68225	-1110.52222	1242.82837	-1151.01770	-985.55023	1373.58679	-1227.57739	-1024.39099	1180.11340	-1244.06421	-1033.45569	1057.78772	-1246.79944	-1017.03320	928.69556	-1219.19177	-1005.32495	808.94525	-1268.62573	-1029.61169	816.73901	-1261.46130	-1017.13177	733.20972	-835.45581	-975.70892	1360.21008	-748.38092	-933.62463	1149.62366	-727.93292	-891.07275	1047.21667	-718.80298	-836.20117	922.17853	-751.10730	-781.24890	838.12994	-705.52808	-807.07733	826.56482	-711.58972	-762.55109	767.60889	-1110.37244	-947.48907	932.64966	-874.99115	-953.79498	930.82764	-1069.13159	-1110.54285	957.57916	-919.39777	-1110.80298	972.16595	-1166.05139	-929.42462	638.78009	-1127.75891	-860.98486	475.38492	-1123.97522	-898.41602	280.45435	-1080.69543	-904.62567	71.11685	-1041.02039	-942.62433	33.73314	-1058.68188	-759.49969	45.17130	-839.26300	-1052.41382	644.63959	-874.28564	-1074.53076	467.06467	-874.23181	-1155.20251	291.60199	-925.53528	-1213.57776	81.76953	-979.04742	-1257.33411	55.09863	-933.45276	-1074.48218	30.19075	-1013.34326	-982.71735	1673.22290															 
75	0.740	-1059.20349	-887.57800	1611.11169	-926.37402	-896.67871	1619.62756	-1061.62195	-1015.28973	1566.77771	-930.43701	-1020.03735	1575.32275	-993.44586	-1047.61682	1413.44958	-995.65540	-1098.33948	1104.06689	-995.46454	-929.01428	1332.25220	-1000.76477	-892.62396	1164.88098	-891.56415	-1102.38379	1242.28040	-1151.14172	-977.33191	1372.32043	-1226.69910	-1017.51581	1178.86597	-1243.23254	-1027.30054	1056.67493	-1246.03333	-1011.38165	927.51129	-1218.30127	-999.97577	807.67664	-1267.69519	-1024.56458	815.66345	-1260.51135	-1012.35651	732.00305	-835.73334	-966.95313	1359.23267	-748.44165	-924.15985	1149.08423	-727.98712	-881.17255	1046.86987	-719.31458	-825.13177	922.37598	-751.86102	-769.62677	838.90405	-706.28314	-795.11517	826.97235	-712.52460	-749.90448	768.73096	-1110.57166	-939.09680	931.38214	-875.00696	-946.18176	930.06757	-1069.81262	-1102.38086	956.19049	-920.04523	-1103.19250	970.95721	-1164.98657	-923.37311	636.12030	-1125.85474	-854.43671	473.13193	-1123.19983	-882.62378	278.92593	-1081.19641	-877.99908	69.19490	-1042.45947	-914.55731	31.18276	-1059.19055	-731.67273	45.63442	-839.26917	-1046.30750	644.27039	-874.14282	-1069.61072	466.73560	-874.18024	-1152.25793	292.05139	-925.36279	-1213.05139	82.84427	-979.00214	-1257.10059	56.68480	-933.32111	-1074.33667	30.13182	-1014.07379	-974.15356	1672.14856															 
76	0.750	-1059.79602	-879.14990	1609.88062	-926.92700	-888.00635	1618.51086	-1061.89783	-1006.84583	1565.43481	-930.70392	-1011.34192	1574.10205	-993.58563	-1039.12415	1412.51880	-996.21228	-1090.45801	1103.08203	-995.68896	-920.72900	1330.83691	-1000.81744	-884.75000	1163.43616	-891.60101	-1094.26563	1241.59326	-1151.38794	-968.90448	1371.02185	-1226.29004	-1010.48065	1177.72571	-1242.55615	-1020.94104	1055.51270	-1245.28613	-1005.47272	926.22125	-1217.49109	-994.30212	806.41553	-1266.68372	-1019.29395	814.43262	-1259.60425	-1007.41345	730.74414	-835.98346	-958.34143	1358.19141	-748.64722	-914.77075	1148.32996	-728.22656	-871.34534	1046.37280	-720.26306	-814.20575	922.29749	-752.74908	-758.13354	839.45898	-707.25739	-783.41193	827.19922	-713.63428	-737.61511	769.47809	-1110.76831	-930.51306	930.14703	-875.01294	-938.52704	929.20349	-1070.57153	-1093.94446	954.75861	-920.80634	-1095.40112	969.78845	-1164.85632	-916.29016	634.29120	-1124.29016	-847.07623	471.72968	-1122.45801	-867.44904	277.49368	-1081.63953	-852.00049	68.05366	-1042.10657	-887.80591	30.13299	-1060.21216	-704.74323	46.24376	-839.21149	-1040.10840	643.83252	-873.86774	-1064.60754	466.41516	-874.00684	-1149.21606	292.53424	-925.21948	-1212.37891	83.86262	-978.89325	-1256.72449	58.19283	-932.99786	-1074.25134	30.22982	-1014.36017	-965.84857	1670.80774															 
77	0.760	-1060.30579	-870.66638	1608.55042	-927.45782	-879.32855	1617.24500	-1062.26306	-998.33624	1564.03809	-931.07349	-1002.60907	1572.77307	-993.81055	-1030.51721	1411.36194	-996.86914	-1082.35364	1102.03625	-995.80273	-912.39319	1329.34534	-1000.86432	-876.76831	1161.89417	-891.80951	-1086.23083	1240.84326	-1151.59131	-960.43311	1369.69324	-1225.77466	-1003.06470	1176.33960	-1241.75708	-1014.37469	1054.20374	-1244.51245	-999.34052	924.82135	-1216.69751	-988.31140	804.97119	-1265.44189	-1013.93054	812.90881	-1258.49414	-1002.38031	729.36322	-836.28375	-949.64368	1357.04724	-748.92596	-905.47937	1147.47729	-728.61810	-861.68805	1045.69226	-721.00397	-803.70288	922.01947	-754.00995	-746.97339	839.76459	-708.39075	-772.08276	827.16437	-714.97321	-725.61334	770.00714	-1111.10828	-921.75134	928.79346	-875.11090	-930.73383	928.25726	-1071.45581	-1085.34180	953.35760	-921.69641	-1087.40771	968.56543	-1164.80798	-908.84369	632.83588	-1122.82996	-840.16052	469.95587	-1121.62512	-852.93549	276.09683	-1082.33105	-827.75079	67.43462	-1042.48120	-862.10364	29.68534	-1061.58704	-679.16010	46.76011	-839.11536	-1033.85278	643.43945	-873.54578	-1059.40759	466.02087	-873.89752	-1146.18152	293.05322	-925.05182	-1211.62524	84.97603	-978.72266	-1256.27319	59.88090	-933.11700	-1074.11743	30.03246	-1015.12781	-957.14471	1669.47363															 
